<?xml version="1.0" encoding="UTF-8" standalone="no"?>
<!-- Created with Inkscape (http://www.inkscape.org/) -->

<svg
   width="44mm"
   height="24mm"
   viewBox="0 0 44 24"
   version="1.1"
   id="svg5"
   inkscape:version="1.1.1 (3bf5ae0d25, 2021-09-20)"
   sodipodi:docname="logo.svg"
   inkscape:export-filename="C:\Users\bartu\programy\d0m1.cz\logo\logo.png"
   inkscape:export-xdpi="577.27277"
   inkscape:export-ydpi="577.27277"
   xmlns:inkscape="http://www.inkscape.org/namespaces/inkscape"
   xmlns:sodipodi="http://sodipodi.sourceforge.net/DTD/sodipodi-0.dtd"
   xmlns="http://www.w3.org/2000/svg"
   xmlns:svg="http://www.w3.org/2000/svg">
  <sodipodi:namedview
     id="namedview7"
     pagecolor="#ffffff"
     bordercolor="#000000"
     borderopacity="1"
     inkscape:pageshadow="0"
     inkscape:pageopacity="0"
     inkscape:pagecheckerboard="false"
     inkscape:document-units="mm"
     showgrid="false"
     inkscape:zoom="4"
     inkscape:cx="92.25"
     inkscape:cy="50.125"
     inkscape:window-width="1920"
     inkscape:window-height="1009"
     inkscape:window-x="1912"
     inkscape:window-y="-8"
     inkscape:window-maximized="1"
     inkscape:current-layer="layer1"
     units="mm"
     height="39mm"
     width="45mm"
     scale-x="1.1"
     viewbox-width="54" />
  <defs
     id="defs2" />
  <g
     inkscape:label="Vrstva 1"
     inkscape:groupmode="layer"
     id="layer1">
    <path
       id="rect852"
       style="fill:#51c4d3;fill-opacity:1;fill-rule:evenodd;stroke-width:0"
       d="M 4.23385,5.5227274 V 19.522907 h 2.0003947 v -0.0078 A 5.9999998,7.0000952 0 0 0 9.1141723,18.668695 5.9999998,7.0000952 0 0 0 11.516093,9.1798686 L 11.50214,9.1509298 A 5.9999998,7.0000952 0 0 0 6.2342447,5.5242779 v -0.00155 H 6.1339925 Z m 2.0003947,1.947168 a 3.9999999,5.0520832 0 0 1 3.5150308,2.6189616 l 0.0093,0.02119 A 3.9999999,5.0520832 0 0 1 8.157123,16.957691 3.9999999,5.0520832 0 0 1 6.234243,17.56954 Z" />
    <path
       id="path1028"
       style="fill:#51c4d3;fill-opacity:1;fill-rule:evenodd;stroke-width:0"
       d="m 18.310076,5.5239835 a 4.9416665,7.0000956 0 0 0 -2.284264,0.8599397 4.9416665,7.0000956 0 0 0 -1.962076,9.4948588 4.9416665,7.0000956 0 0 0 6.700849,2.79098 4.9416665,7.0000956 0 0 0 1.978248,-9.4884446 l -0.01149,-0.02911 A 4.9416665,7.0000956 0 0 0 18.310076,5.5239835 Z m 0.07193,1.9468283 A 3.2944443,5.0520834 0 0 1 21.287665,10.0901 l 0.0077,0.02121 a 3.2944443,5.0520834 0 0 1 -1.318974,6.847942 3.2944443,5.0520834 0 0 1 -4.467232,-2.01442 3.2944443,5.0520834 0 0 1 1.308333,-6.852875 3.2944443,5.0520834 0 0 1 1.564553,-0.6211499 z" />
    <path
       id="rect1989"
       style="fill:#51c4d3;fill-opacity:1;fill-rule:evenodd;stroke-width:0"
       d="M 24.545049,5.5227273 V 19.522907 h 1.73271 V 8.3514953 l 2.823602,3.2592327 1.22473,1.414384 1.225248,-1.414384 2.823602,-3.2597494 V 19.522907 h 1.732192 V 5.5227273 h -1.732192 l -3.30626,3.8173381 -5.16e-4,-5.167e-4 -0.74259,0.8567953 -0.176734,-0.204122 -3.871082,-4.4694947 z" />
    <rect
       style="fill:#51c4d3;fill-opacity:1;fill-rule:evenodd;stroke-width:0"
       id="rect3255"
       width="2"
       height="14"
       x="37.58469"
       y="5.5228171" />
  </g>
</svg>
